HIERARCHY
ROOT Hips
{
    OFFSET 0.000000 0.000000 0.000000
    CHANNELS 6 Xposition Yposition Zposition Zrotation Xrotation Yrotation
        JOINT Chest
        {
            OFFSET -0.000000 32.910728 -0.000000
            CHANNELS 3 Zrotation Xrotation Yrotation
            JOINT Neck
            {
                OFFSET -0.000000 24.872103 0.000000
                CHANNELS 3 Zrotation Xrotation Yrotation
                JOINT Head
                {
                    OFFSET -0.000000 10.694444 0.000000
                    CHANNELS 3 Zrotation Xrotation Yrotation
                    End Site
                    {
                        OFFSET -0.000000 16.527781 0.000000
                    }
                }
            }
            JOINT LeftCollar
            {
                OFFSET -0.000000 24.872103 0.000000
                CHANNELS 3 Zrotation Xrotation Yrotation
                JOINT LeftShoulder
                {
                    OFFSET 20.500000 -0.000000 0.000000
                    CHANNELS 3 Zrotation Xrotation Yrotation
                    JOINT LeftElbow
                    {
                        OFFSET 20.261999 0.000000 0.000000
                        CHANNELS 3 Zrotation Xrotation Yrotation
                        JOINT LeftWrist
                        {
                            OFFSET 25.372869 0.000000 0.000000
                            CHANNELS 3 Zrotation Xrotation Yrotation
                            End Site
                            {
                                OFFSET 0.000000 -14.583331 0.000000
                            }
                        }
                    }
                }
            }
            JOINT RightCollar
            {
                OFFSET -0.000000 24.872103 0.000000
                CHANNELS 3 Zrotation Xrotation Yrotation
                JOINT RightShoulder
                {
                    OFFSET -20.500000 0.000000 0.000000
                    CHANNELS 3 Zrotation Xrotation Yrotation
                    JOINT RightElbow
                    {
                        OFFSET -20.261999 0.000000 0.000000
                        CHANNELS 3 Zrotation Xrotation Yrotation
                        JOINT RightWrist
                        {
                            OFFSET -25.372869 0.000000 0.000000
                            CHANNELS 3 Zrotation Xrotation Yrotation
                            End Site
                            {
                                OFFSET -0.000000 -14.583331 0.000000
                            }
                        }
                    }
                }
            }
        }
    JOINT LeftHip
    {
        OFFSET 11.666668 0.000000 0.000000
        CHANNELS 3 Zrotation Xrotation Yrotation
        JOINT LeftKnee
        {
            OFFSET -0.000000 -37.459236 0.000000
            CHANNELS 3 Zrotation Xrotation Yrotation
            JOINT LeftAnkle
            {
                OFFSET -0.000000 -38.972313 0.000000
                CHANNELS 3 Zrotation Xrotation Yrotation
                End Site
                {
                    OFFSET -0.000000 -4.861111 16.527781
                }
            }
        }
    }
    JOINT RightHip
    {
        OFFSET -11.666668 0.000000 0.000000
        CHANNELS 3 Zrotation Xrotation Yrotation
        JOINT RightKnee
        {
            OFFSET -0.000000 -37.459236 0.000000
            CHANNELS 3 Zrotation Xrotation Yrotation
            JOINT RightAnkle
            {
                OFFSET -0.000000 -38.972313 0.000000
                CHANNELS 3 Zrotation Xrotation Yrotation
                End Site
                {
                    OFFSET -0.000000 -4.861111 16.527781
                }
            }
        }
    }
}
MOTION
Frames:    5
Frame Time:    0.010000
-55.153996    80.562927    -16.974501    2.832615    -2.174319    3.707036    -0.145875    19.417654    0.335346    2.101107    -10.196414    15.958492    -9.193991    -3.843002    15.597725    -26.718359    -1.777810    7.593360    35.793964    71.034149    -92.808289    50.544468    -16.941023    -35.015610    166.156631    1.929756    -127.203674    27.696304    -4.563208    -18.251446    5.661537    58.352154    44.520092    -2.650067    -1.758313    66.527206    -129.808792    -11.404776    5.585670    6.765969    -27.559946    1.325594    -9.119212    60.602455    3.719170    -8.107608    -1.929079    8.497047    -16.071976    -24.123369    -13.975278    4.976303    60.268280    -9.595381    11.035810    -19.222742    5.128406    
-55.169506    80.690193    -16.956949    2.862283    -2.177625    3.691052    -0.062292    19.264946    0.365289    1.733691    -10.260819    15.703970    -11.809928    -3.850384    15.147106    -26.691549    -1.774267    7.469393    36.010269    71.110519    -93.063148    50.405525    -16.881971    -35.067223    166.116455    1.827628    -127.091988    27.619143    -4.579313    -18.554482    5.388361    58.290394    44.736919    -2.754905    -1.850712    66.559654    -129.521469    -10.769008    5.786914    6.617491    -27.430199    1.253581    -8.853703    60.361172    3.615094    -8.870493    -1.913513    8.434815    -16.007320    -24.016750    -13.798868    5.062884    59.977486    -10.018105    11.035347    -18.884457    5.334450    
-55.211067    80.829590    -16.958042    2.845273    -2.143776    3.697150    -0.192396    19.010651    0.275176    1.940455    -10.411973    15.677046    -11.719357    -3.387167    15.151644    -26.543118    -1.720340    7.408670    32.775349    71.432236    -89.821373    49.826859    -16.850622    -35.934521    166.085388    1.281535    -127.447334    27.710529    -4.580234    -18.371918    6.060156    58.396229    43.987518    -2.626348    -1.686264    66.482605    -130.153366    -11.445733    5.749482    6.549060    -27.360489    1.327886    -8.321610    60.166191    2.907687    -8.984629    -1.725469    8.659976    -15.868950    -23.943922    -13.711192    5.027813    59.715759    -9.908048    10.960044    -18.689697    5.087848    
-55.222916    80.996407    -16.854126    2.889192    -2.419026    3.768065    -0.156970    19.217123    0.398887    2.136404    -10.429966    15.794802    -12.148405    -3.449043    15.233681    -26.539978    -1.772720    7.654023    36.067810    71.103851    -92.980354    50.125423    -16.974548    -35.298943    165.766464    1.664626    -127.104202    27.614305    -4.506806    -18.259508    7.214366    57.958393    42.852039    -2.275083    -1.321158    66.638390    -130.548035    -11.087171    5.885424    6.372421    -26.836130    1.413599    -7.662960    59.801498    2.128078    -8.964116    -1.537595    8.884412    -15.782070    -23.337124    -13.668619    4.901986    59.218071    -9.657293    10.879376    -18.486588    4.898364    
-55.253387    81.155190    -16.876507    2.866565    -2.306055    3.739586    -0.148810    18.937574    0.542693    1.995877    -10.571430    15.779763    -11.999963    -3.273672    15.250998    -26.494717    -1.786652    7.518005    32.549622    71.358757    -89.466911    49.325306    -16.854979    -36.438881    166.090530    1.670236    -127.655983    27.502239    -4.528633    -18.514711    6.323217    58.121902    43.734959    -2.319642    -1.535695    66.608177    -130.026093    -11.106828    5.821088    6.356308    -26.830296    1.360752    -7.670856    59.463612    2.611842    -8.992232    -1.216014    8.608527    -15.621407    -23.326303    -13.711220    4.569973    58.902115    -9.051198    10.766981    -18.339594    4.465936    
